HIERARCHY
ROOT SpineBase
{
  OFFSET 0.000000 0.000000 0.000000
  CHANNELS 6 Xposition Yposition Zposition Zrotation Xrotation Yrotation
  JOINT SpineMid
  {
    OFFSET 0.000000 31.987068 0.000000
    CHANNELS 3 Zrotation Xrotation Yrotation
    JOINT SpineShoulder
    {
      OFFSET 0.031225 23.737473 -0.924304
      CHANNELS 3 Zrotation Xrotation Yrotation
      JOINT Neck
      {
        OFFSET 0.079203 7.849917 -0.640130
        CHANNELS 3 Zrotation Xrotation Yrotation
        JOINT Head
        {
          OFFSET 5.040241 11.885778 5.983916
          CHANNELS 3 Zrotation Xrotation Yrotation
          End Site
          {
            OFFSET 0 0 0
          }
        }
      }
      JOINT ShoulderLeft
      {
        OFFSET -8.485182 -3.241474 -14.354165
        CHANNELS 3 Zrotation Xrotation Yrotation
        JOINT ElbowLeft
        {
          OFFSET -6.409984 -27.784435 -8.925127
          CHANNELS 3 Zrotation Xrotation Yrotation
          JOINT WristLeft
          {
            OFFSET 1.907495 -23.583138 -4.971121
            CHANNELS 3 Zrotation Xrotation Yrotation
            JOINT HandLeft
            {
              OFFSET 0.600968 -7.235358 1.485614
              CHANNELS 3 Zrotation Xrotation Yrotation
              JOINT HandTipLeft
              {
                OFFSET 1.084544 -5.971448 0.990354
                CHANNELS 3 Zrotation Xrotation Yrotation
                End Site
                {
                  OFFSET 0 0 0
                }
              }
              JOINT ThumbLeft
              {
                OFFSET 3.073439 0.720751 -0.269731
                CHANNELS 3 Zrotation Xrotation Yrotation
                End Site
                {
                  OFFSET 0 0 0
                }
              }
            }
          }
        }
      }
      JOINT ShoulderRight
      {
        OFFSET 9.350658 -6.577249 10.886587
        CHANNELS 3 Zrotation Xrotation Yrotation
        JOINT ElbowRight
        {
          OFFSET 1.697798 -25.519695 11.442673
          CHANNELS 3 Zrotation Xrotation Yrotation
          JOINT WristRight
          {
            OFFSET 2.405979 -23.727669 -2.507669
            CHANNELS 3 Zrotation Xrotation Yrotation
            JOINT HandRight
            {
              OFFSET 0.531792 -7.230615 -0.868500
              CHANNELS 3 Zrotation Xrotation Yrotation
              JOINT HandTipRight
              {
                OFFSET 0.868826 -4.801902 -0.893220
                CHANNELS 3 Zrotation Xrotation Yrotation
                End Site
                {
                  OFFSET 0 0 0
                }
              }
              JOINT ThumbRight
              {
                OFFSET 1.604492 0.300968 -3.309323
                CHANNELS 3 Zrotation Xrotation Yrotation
                End Site
                {
                  OFFSET 0 0 0
                }
              }
            }
          }
        }
      }
    }
  }
  JOINT HipLeft
  {
    OFFSET -4.303034 1.059787 -8.602821
    CHANNELS 3 Zrotation Xrotation Yrotation
    JOINT KneeLeft
    {
      OFFSET -10.558785 -35.758047 -3.713519
      CHANNELS 3 Zrotation Xrotation Yrotation
      JOINT AnkleLeft
      {
        OFFSET -10.914277 -37.448073 -0.587115
        CHANNELS 3 Zrotation Xrotation Yrotation
        JOINT FootLeft
        {
          OFFSET -1.991048 -6.339755 -8.783471
          CHANNELS 3 Zrotation Xrotation Yrotation
          End Site
          {
            OFFSET 0 0 0
          }
        }
      }
    }
  }
  JOINT HipRight
  {
    OFFSET 5.009701 0.388448 1.467878
    CHANNELS 3 Zrotation Xrotation Yrotation
    JOINT KneeRight
    {
      OFFSET -3.538782 -38.688256 5.460282
      CHANNELS 3 Zrotation Xrotation Yrotation
      JOINT AnkleRight
      {
        OFFSET -6.772999 -34.366780 6.970842
        CHANNELS 3 Zrotation Xrotation Yrotation
        JOINT FootRight
        {
          OFFSET 2.384179 -8.272310 -4.865104
          CHANNELS 3 Zrotation Xrotation Yrotation
          End Site
          {
            OFFSET 0 0 0
          }
        }
      }
    }
  }
}
MOTION
Frames: 6
Frame Time: 0.033333
-35.227894 82.452898 351.696814 -0.000000 0.000000 -47.239336 -0.000000 0.000000 47.239336 -0.000000 0.000000 0.000000 -0.000000 0.000000 0.000000 0.000000 0.000000 0.000000 -0.000000 0.000000 0.000000 -0.000000 0.000000 0.000000 -0.000000 0.000000 0.000000 -0.000000 0.000000 0.000000 0.000000 0.000000 0.000000 0.000000 0.000000 0.000000 -0.000000 0.000000 0.000000 -0.000000 0.000000 0.000000 -0.000000 0.000000 0.000000 -0.000000 0.000000 0.000000 0.000000 0.000000 0.000000 0.000000 0.000000 0.000000 -0.000000 0.000000 47.239336 -0.000000 0.000000 0.000000 -0.000000 0.000000 0.000000 0.000000 0.000000 0.000000 -0.000000 0.000000 47.239336 -0.000000 0.000000 0.000000 -0.000000 0.000000 0.000000 0.000000 0.000000 0.000000
-35.015031 82.450530 351.738807 0.061656 -0.054607 -46.722255 -0.082023 -0.007453 46.722279 -0.000000 0.000000 0.000000 -0.000000 0.000000 0.000000 0.000000 0.000000 0.000000 -0.000000 0.000000 0.000000 1.807461 -0.356095 -0.403962 0.664114 -0.770941 0.835028 -2.458021 1.149323 -0.386133 0.000000 0.000000 0.000000 0.000000 0.000000 0.000000 -0.000000 0.000000 0.000000 -0.428720 -2.250536 -0.191815 -2.273744 -2.789221 0.117620 -2.335549 -0.676584 0.023492 0.000000 0.000000 0.000000 0.000000 0.000000 0.000000 -0.082023 -0.007453 46.722279 -0.000000 0.000000 0.000000 -0.000000 0.000000 0.000000 0.000000 0.000000 0.000000 -0.082023 -0.007453 46.722279 -0.000000 0.000000 0.000000 -0.000000 0.000000 0.000000 0.000000 0.000000 0.000000
-34.810872 82.446373 351.802325 0.122597 -0.116220 -46.299530 -0.168724 -0.008338 46.299642 -0.000000 0.000000 0.000000 -0.000000 0.000000 0.000000 0.000000 0.000000 0.000000 -0.000000 0.000000 0.000000 3.350382 -0.731432 -0.743434 0.896045 -1.331329 1.500207 -3.135368 1.565971 -0.569111 0.000000 0.000000 0.000000 0.000000 0.000000 0.000000 -0.000000 0.000000 0.000000 -0.659103 -4.092525 -0.370663 -3.705923 -5.284171 0.116682 -4.382166 -0.556714 0.325013 0.000000 0.000000 0.000000 0.000000 0.000000 0.000000 -0.168724 -0.008338 46.299642 -0.000000 0.000000 0.000000 0.043925 -1.286990 0.349319 0.000000 0.000000 0.000000 -0.168724 -0.008338 46.299642 -0.000000 0.000000 0.000000 -0.173690 -0.797941 -0.129626 0.000000 0.000000 0.000000
-34.615418 82.440427 351.887367 0.182833 -0.184855 -45.966393 -0.259981 -0.002956 45.966681 -0.000000 0.000000 0.000000 -0.000000 0.000000 0.000000 0.000000 0.000000 0.000000 -0.184178 -1.110779 0.314509 4.809165 -0.040162 -1.426327 0.894532 -1.789845 2.019054 -3.816870 2.692409 -0.597297 0.000000 0.000000 0.000000 0.000000 0.000000 0.000000 -0.000000 0.000000 0.000000 -0.693624 -5.547154 -0.526230 -4.301652 -7.524977 0.016049 -6.300599 0.214468 0.919452 0.000000 0.000000 0.000000 0.000000 0.000000 0.000000 -0.259981 -0.002956 45.966681 -0.876614 0.321204 -0.077239 0.942289 -2.065528 0.554938 0.000000 0.000000 0.000000 -1.234821 -0.296079 45.793306 0.889829 -0.494417 0.174670 -0.310487 -1.057599 -0.125864 0.000000 0.000000 0.000000
-34.428669 82.432692 351.993934 0.242369 -0.260525 -45.718717 -0.355732 0.008375 45.719294 -0.000000 0.000000 0.000000 -0.000000 0.000000 0.000000 0.000000 0.000000 0.000000 -0.220723 -1.546533 0.426394 5.852448 -0.024629 -1.817054 0.768075 -2.226159 2.405779 -4.100168 4.118403 -0.508450 0.000000 0.000000 0.000000 0.000000 0.000000 0.000000 -0.000000 0.000000 0.000000 -0.532317 -6.632140 -0.652127 -4.023564 -9.567608 -0.168491 -8.315891 1.505702 1.814377 0.000000 0.000000 0.000000 0.000000 0.000000 0.000000 -0.355732 0.008375 45.719294 -1.170702 0.527057 -0.129478 1.255300 -2.605455 0.702083 0.000000 0.000000 0.000000 -1.572266 -0.358155 45.502434 1.114092 -0.610841 0.219085 -0.480050 -1.223101 -0.075889 0.000000 0.000000 0.000000
-34.250624 82.423169 352.122025 0.301211 -0.343249 -45.552969 -0.455967 0.025322 45.553972 -0.000000 0.000000 0.000000 -0.000000 0.000000 0.000000 0.000000 0.000000 0.000000 -0.243683 -2.011477 0.540884 6.614443 0.010504 -2.161165 0.564443 -2.714946 2.665495 -4.047115 5.880482 -0.323344 0.000000 0.000000 0.000000 0.000000 0.000000 0.000000 -0.000000 0.000000 0.000000 -0.172748 -7.360045 -0.745358 -2.757491 -11.460787 -0.418687 -10.699478 3.218865 3.030211 0.000000 0.000000 0.000000 0.000000 0.000000 0.000000 0.423836 0.017241 45.677671 -2.076333 1.423278 -0.299404 1.570113 -3.074348 0.831839 0.000000 0.000000 0.000000 -1.872002 -0.405667 45.301068 1.302383 -0.703391 0.256198 -0.682099 -1.294034 0.020658 0.000000 0.000000 0.000000
